<?xml version="1.0" standalone="no"?>
<!DOCTYPE svg PUBLIC "-//W3C//DTD SVG 1.1//EN" "http://www.w3.org/Graphics/SVG/1.1/DTD/svg11.dtd" >
<svg xmlns="http://www.w3.org/2000/svg">
<metadata>Generated by IcoMoon</metadata>
<defs>
<font id="icomoon" horiz-adv-x="1024">
<font-face units-per-em="1024" ascent="960" descent="-64" />
<missing-glyph horiz-adv-x="1024" />
<glyph unicode="&#x20;" horiz-adv-x="512" d="" />
<glyph unicode="&#xe900;" glyph-name="arrow-left" d="M744.727 750.545l-65.629-66.56 186.182-188.975h-818.735c-0.001 0-0.001 0-0.002 0-25.706 0-46.545-20.839-46.545-46.545 0-0.164 0.001-0.327 0.003-0.49v0.025c-0.001-0.138-0.002-0.302-0.002-0.465 0-25.706 20.839-46.545 46.545-46.545 0.001 0 0.002 0 0.002 0h818.734l-186.182-188.975 65.629-66.56 265.775 269.033c18.153 18.618 18.153 48.407 0 67.025z" />
<glyph unicode="&#xe901;" glyph-name="arrow-right" d="M744.727 750.545l-65.629-66.56 186.182-188.975h-818.735c-0.001 0-0.001 0-0.002 0-25.706 0-46.545-20.839-46.545-46.545 0-0.164 0.001-0.327 0.003-0.49v0.025c-0.001-0.138-0.002-0.302-0.002-0.465 0-25.706 20.839-46.545 46.545-46.545 0.001 0 0.002 0 0.002 0h818.734l-186.182-188.975 65.629-66.56 265.775 269.033c18.153 18.618 18.153 48.407 0 67.025z" />
<glyph unicode="&#xe903;" glyph-name="calendar" d="M1024 768v-768c0-38.4-25.6-64-64-64h-896c-38.4 0-64 25.6-64 64v768c0 38.4 25.6 64 64 64h128v64c0 38.4 25.6 64 64 64s64-25.6 64-64v-64h128v64c0 38.4 25.6 64 64 64s64-25.6 64-64v-64h128v64c0 38.4 25.6 64 64 64s64-25.6 64-64v-64h128c38.4 0 64-25.6 64-64zM896 512h-768v-448h768z" />
<glyph unicode="&#xe904;" glyph-name="check" d="M459.825 236.373c-11.938-12.071-28.502-19.546-46.811-19.546s-34.873 7.475-46.806 19.54l-0.006 0.006-132.145 131.657c-12.071 11.938-19.546 28.502-19.546 46.811s7.475 34.873 19.54 46.806l0.006 0.006c11.938 12.071 28.502 19.546 46.811 19.546s34.873-7.475 46.806-19.54l85.339-85.339 283.307 283.307c11.938 12.071 28.502 19.546 46.811 19.546s34.873-7.475 46.806-19.54l0.006-0.006c25.844-25.356 25.844-67.291 0-93.135zM33.158 960c-18.53 0-33.158-14.629-33.158-33.158v-957.684c0-18.53 14.629-33.158 33.158-33.158h957.684c18.53 0 33.158 14.629 33.158 33.158v957.684c0 18.53-14.629 33.158-33.158 33.158z" />
<glyph unicode="&#xe906;" glyph-name="chevron-left" d="M301.176 1.656l-90.353 87.341 379.482 392.132-379.482 391.529 90.353 87.341 463.812-478.871z" />
<glyph unicode="&#xe907;" glyph-name="chevron-right" d="M301.176 1.656l-90.353 87.341 379.482 392.132-379.482 391.529 90.353 87.341 463.812-478.871z" />
<glyph unicode="&#xe908;" glyph-name="circle" d="M0 448c0 282.77 229.23 512 512 512s512-229.23 512-512v0c0-282.77-229.23-512-512-512s-512 229.23-512 512v0z" />
<glyph unicode="&#xe909;" glyph-name="close-bold" d="M969.387 938.837c-11.895 12.933-28.898 21.008-47.787 21.008s-35.892-8.075-47.745-20.962l-0.042-0.046-361.813-373.419-361.813 373.419c-11.895 12.933-28.898 21.008-47.787 21.008s-35.892-8.075-47.745-20.962l-0.042-0.046c-27.307-27.989-27.307-70.315 0-98.987l361.813-373.419-361.813-374.101c-27.307-27.989-27.307-70.315 0-98.304 13.653-14.336 27.307-21.163 47.787-21.163s34.133 6.827 47.787 21.163l361.813 373.419 361.813-373.419c13.653-14.336 34.133-21.163 47.787-21.163s34.133 6.827 47.787 21.163c27.307 27.989 27.307 70.315 0 98.304l-361.813 374.101 361.813 373.419c27.307 28.672 27.307 70.997 0 98.987z" />
<glyph unicode="&#xe90b;" glyph-name="facebook-icon" d="M740.864 628.224h-156.672v106.496c0 39.936 25.6 49.152 43.52 49.152h110.592v175.616l-152.064 0.512c-168.448 0-207.36-131.072-207.36-214.528v-117.248h-97.28v-180.736h97.28v-511.488h205.312v511.488h138.24l18.432 180.736z" />
<glyph unicode="&#xe90c;" glyph-name="flag" d="M454.4-32l-448 832c-12.8 32-6.4 70.4 25.6 89.6 32 12.8 70.4 6.4 89.6-25.6l448-832c12.8-32 6.4-70.4-25.6-89.6-32-12.8-70.4-6.4-89.6 25.6zM992 595.2c-179.2-160-396.8 38.4-531.2-198.4l-204.8 364.8c134.4 236.8 352 38.4 524.8 198.4z" />
<glyph unicode="&#xe90d;" glyph-name="grid" d="M0 896c0 35.346 28.654 64 64 64v0h128c35.346 0 64-28.654 64-64v0-128c0-35.346-28.654-64-64-64v0h-128c-35.346 0-64 28.654-64 64v0zM384 896c0 35.346 28.654 64 64 64v0h128c35.346 0 64-28.654 64-64v0-128c0-35.346-28.654-64-64-64v0h-128c-35.346 0-64 28.654-64 64v0zM768 896c0 35.346 28.654 64 64 64v0h128c35.346 0 64-28.654 64-64v0-128c0-35.346-28.654-64-64-64v0h-128c-35.346 0-64 28.654-64 64v0zM0 512c0 35.346 28.654 64 64 64v0h128c35.346 0 64-28.654 64-64v0-128c0-35.346-28.654-64-64-64v0h-128c-35.346 0-64 28.654-64 64v0zM384 512c0 35.346 28.654 64 64 64v0h128c35.346 0 64-28.654 64-64v0-128c0-35.346-28.654-64-64-64v0h-128c-35.346 0-64 28.654-64 64v0zM768 512c0 35.346 28.654 64 64 64v0h128c35.346 0 64-28.654 64-64v0-128c0-35.346-28.654-64-64-64v0h-128c-35.346 0-64 28.654-64 64v0zM0 128c0 35.346 28.654 64 64 64v0h128c35.346 0 64-28.654 64-64v0-128c0-35.346-28.654-64-64-64v0h-128c-35.346 0-64 28.654-64 64v0zM384 128c0 35.346 28.654 64 64 64v0h128c35.346 0 64-28.654 64-64v0-128c0-35.346-28.654-64-64-64v0h-128c-35.346 0-64 28.654-64 64v0zM768 128c0 35.346 28.654 64 64 64v0h128c35.346 0 64-28.654 64-64v0-128c0-35.346-28.654-64-64-64v0h-128c-35.346 0-64 28.654-64 64v0z" />
<glyph unicode="&#xe90e;" glyph-name="instagram-icon" d="M781.653 502.613h242.347v-454.949c0-47.787-36.571-87.284-80.945-87.284h-812.861c-44.373 0-81.432 39.497-81.432 87.284v454.949h227.718c-5.243-19.909-8.253-42.764-8.253-66.323 0-148.765 120.034-269.495 268.534-270.621l0.107-0.001c148.236 0 268.678 121.905 268.678 273.067 0 21.455-1.95 43.398-23.893 63.878zM528.579 261.73c-91.771 2.163-165.338 77.070-165.338 169.16 0 1.216 0.013 2.429 0.038 3.638l-0.003-0.181c-0.022 1.023-0.035 2.229-0.035 3.438 0 91.894 73.68 166.578 165.186 168.202l0.152 0.002c91.658-1.625 165.338-76.31 165.338-168.204 0-1.209-0.013-2.415-0.038-3.618l0.003 0.179c0.023-1.029 0.035-2.242 0.035-3.457 0-92.089-73.567-166.996-165.137-169.156l-0.201-0.004zM957.684 735.208v106.301c0 15.116-15.116 27.307-33.646 27.307h-129.707c-19.017 0-34.621-12.19-34.621-27.307v-106.301c0-15.604 15.604-28.282 34.621-28.282h129.707c18.53 0 33.646 12.678 33.646 28.282zM936.716 935.619c47.787 0 87.284-39.985 87.284-83.87v-210.651h-330.118c-44.71 37.737-101.813 62.091-164.437 66.27l-0.866 0.046c-63.39 0-115.566-30.72-165.303-66.316h-314.514v210.651c0 43.886 37.059 83.87 81.432 83.87z" />
<glyph unicode="&#xe911;" glyph-name="minus" d="M0 369.231h1024v157.538h-1024z" />
<glyph unicode="&#xe912;" glyph-name="notebook" d="M947.2 896v-896c0-38.4-25.6-64-64-64h-768c-38.4 0-64 25.6-64 64v896c0 38.4 25.6 64 64 64h768c38.4 0 64-25.6 64-64zM243.2 128h320v192h192v448h-512z" />
<glyph unicode="&#xe913;" glyph-name="play" d="M248.491 949.76c-14.336 9.557-34.133 14.336-48.469 4.779-19.797-9.557-29.355-24.576-29.355-43.691v-877.909c0-19.115 9.557-34.133 29.355-43.691 4.779-4.779 9.557-4.779 19.115-4.779 10.24 0 19.797 4.779 29.355 9.557l585.045 438.955c12.028 7.914 19.858 21.351 19.858 36.618 0 0.807-0.022 1.609-0.065 2.405l0.005-0.111c0.038 0.685 0.060 1.487 0.060 2.294 0 15.266-7.83 28.704-19.693 36.516l-0.164 0.102z" />
<glyph unicode="&#xe914;" glyph-name="plus-circle" d="M554.667 405.333v-170.667c0-25.6-17.067-42.667-42.667-42.667s-42.667 17.067-42.667 42.667v170.667h-170.667c-25.6 0-42.667 17.067-42.667 42.667s17.067 42.667 42.667 42.667h170.667v170.667c0 25.6 17.067 42.667 42.667 42.667s42.667-17.067 42.667-42.667v-170.667h170.667c25.6 0 42.667-17.067 42.667-42.667s-17.067-42.667-42.667-42.667zM0 448c0-281.6 230.4-512 512-512s512 230.4 512 512-230.4 512-512 512-512-230.4-512-512z" />
<glyph unicode="&#xe915;" glyph-name="plus" d="M36.571 484.571h950.857v-146.286h-950.857z" />
<glyph unicode="&#xe916;" glyph-name="search" d="M1004.8 44.16c25.6-25.6 25.6-63.36 0-88.96-12.8-12.8-32-19.2-44.8-19.2s-32 6.4-44.8 19.2l-192 190.72c-74.264-55.005-167.683-88.045-268.819-88.045-249.512 0-452.053 201.103-454.38 450.065l-0.002 0.22c1.453 249.855 204.335 451.84 454.393 451.84 0.003 0 0.005 0 0.008 0v0c247.649-0.637 448.161-201.542 448.161-449.279 0-101.595-33.721-195.314-90.581-270.574l0.82 1.133zM780.8 508.16c0 180.266-146.134 326.4-326.4 326.4s-326.4-146.134-326.4-326.4v0c0-177.92 147.2-317.44 326.4-317.44s326.4 139.52 326.4 317.44z" />
<glyph unicode="&#xe917;" glyph-name="toggle" d="M0 896c0 35.346 28.654 64 64 64v0h128c35.346 0 64-28.654 64-64v0-128c0-35.346-28.654-64-64-64v0h-128c-35.346 0-64 28.654-64 64v0zM384 896c0 35.346 28.654 64 64 64v0h128c35.346 0 64-28.654 64-64v0-128c0-35.346-28.654-64-64-64v0h-128c-35.346 0-64 28.654-64 64v0zM768 896c0 35.346 28.654 64 64 64v0h128c35.346 0 64-28.654 64-64v0-128c0-35.346-28.654-64-64-64v0h-128c-35.346 0-64 28.654-64 64v0zM0 512c0 35.346 28.654 64 64 64v0h128c35.346 0 64-28.654 64-64v0-128c0-35.346-28.654-64-64-64v0h-128c-35.346 0-64 28.654-64 64v0zM384 512c0 35.346 28.654 64 64 64v0h128c35.346 0 64-28.654 64-64v0-128c0-35.346-28.654-64-64-64v0h-128c-35.346 0-64 28.654-64 64v0zM768 512c0 35.346 28.654 64 64 64v0h128c35.346 0 64-28.654 64-64v0-128c0-35.346-28.654-64-64-64v0h-128c-35.346 0-64 28.654-64 64v0zM0 128c0 35.346 28.654 64 64 64v0h128c35.346 0 64-28.654 64-64v0-128c0-35.346-28.654-64-64-64v0h-128c-35.346 0-64 28.654-64 64v0zM384 128c0 35.346 28.654 64 64 64v0h128c35.346 0 64-28.654 64-64v0-128c0-35.346-28.654-64-64-64v0h-128c-35.346 0-64 28.654-64 64v0zM768 128c0 35.346 28.654 64 64 64v0h128c35.346 0 64-28.654 64-64v0-128c0-35.346-28.654-64-64-64v0h-128c-35.346 0-64 28.654-64 64v0z" />
<glyph unicode="&#xe918;" glyph-name="triangle" d="M1024 809.412v-687.285l-1024 680.056z" />
<glyph unicode="&#xe919;" glyph-name="twitter-icon" d="M812.505 698.486l-2.363 1.969c-31.884 31.331-75.639 50.673-123.911 50.673-3.378 0-6.733-0.095-10.064-0.282l0.462 0.021-1.969 3.938 1.182 0.394c46.474 10.634 74.043 21.662 82.314 33.871 3.151 9.452-0.394 14.966-10.634 16.148-23.631-2.757-45.292-7.877-64.591-15.754 24.812 15.754 34.265 27.175 28.751 32.689-24.025-0.788-50.018-12.997-77.194-37.415 10.24 17.329 13.785 26.782 11.028 28.357-12.603-9.058-24.025-18.905-33.871-29.145-20.48-22.843-37.022-44.505-49.625-63.803l-0.788-1.575c-29.236-46.451-52.854-100.205-68.006-157.405l-0.917-4.072-5.12-3.938-1.182-1.182c-19.613 24.813-43.102 45.541-69.734 61.581l-1.158 0.647c-33.301 21.931-71.71 42.865-111.848 60.601l-5.124 2.020c-41.505 22.11-90.834 43.419-141.958 60.85l-7.309 2.165c-0.394-56.714 27.175-102.006 81.92-134.695v-1.182c-19.298 0.788-38.203-2.757-55.926-8.271 3.545-52.382 40.566-88.615 110.671-108.702l-0.394-1.182c-27.569 1.575-50.412-7.877-67.742-27.963 22.843-45.292 63.803-67.348 122.88-65.378-11.422-6.302-20.874-12.997-26.782-20.48-11.028-11.028-14.572-24.418-11.028-40.172 12.997-22.843 35.446-33.477 69.317-31.902l1.969-2.363-1.182-1.182c-46.606-50.799-113.296-82.527-187.398-82.527-7.929 0-15.773 0.363-23.517 1.074l0.995-0.074-1.182-0.788c-50.018 0.394-103.582 24.812-161.477 72.862 56.7-82.314 135.482-145.747 227.819-182.355l3.368-1.178c109.489-36.628 218.978-38.991 328.074-7.877h1.969c111.003 33.974 203.59 100.556 269.195 188.456l0.984 1.378c29.759 40.738 52.046 88.96 63.716 141.19l0.481 2.564c55.138-1.969 95.311 14.178 120.123 48.443l-0.788 0.788c-18.511-6.695-54.351-4.726-107.914 6.302v6.302h0.394c58.289 6.695 92.948 25.6 103.975 57.108-18.441-7.876-39.897-12.455-62.423-12.455-21.035 0-41.138 3.993-59.591 11.262l1.103-0.383c-8.718 60.24-36.914 112.706-77.887 151.935l-0.095 0.090z" />
<glyph unicode="&#xe91b;" glyph-name="world-map" d="M512-64c-281.6 0-512 230.4-512 512s230.4 512 512 512 512-230.4 512-512-230.4-512-512-512zM512 832c-211.865-0.528-383.472-172.135-384-383.949v-0.051c0.528-211.865 172.135-383.472 383.949-384h0.051c211.865 0.528 383.472 172.135 384 383.949v0.051c-0.528 211.865-172.135 383.472-383.949 384h-0.051zM291.375 441.484c19.084 51.2 102.4 63.767 140.567 44.684 38.633-19.084 70.284 0 108.916-44.684 32.116-45.149 63.767-32.116 70.284-96.349 6.516-63.767-83.316-179.2-102.4-210.851-25.6-32.116-89.367 6.051-89.367 95.884 0 89.367-45.149 95.884-70.749 102.4-31.651 12.567-95.884 19.084-57.251 108.916zM422.167 712.844s-13.033-31.651 12.567-38.167c64.233-13.033 70.749-32.116 96.349-64.233 25.6-31.651-6.516-63.767-13.033-102.4-6.516-31.651 19.084-51.2 76.8-38.167 76.8 19.084 83.316-64.233 128-57.716 38.633 6.516 70.284-57.716 89.833-63.767 6.051 25.6 12.567 51.2 12.567 76.8-2.13 120.017-67.736 224.243-164.593 280.752l-1.574 0.848c-25.6 6.051-51.2 6.051-76.8 6.051-51.2 0-96.349 32.116-160.116 0z" />
<glyph unicode="&#xe91c;" glyph-name="zoom" d="M873.412 532.329c0 168.659-138.541 307.2-307.2 307.2s-307.2-138.541-307.2-307.2 138.541-301.176 307.2-301.176 307.2 132.518 307.2 301.176zM228.894 279.341c-54.212 72.282-84.329 156.612-84.329 252.988 0 234.533 190.126 424.659 424.659 424.659s424.659-190.126 424.659-424.659v0c0-234.918-192.753-427.671-427.671-427.671-96.376 0-186.729 30.118-252.988 84.329l-180.706-180.706c-12.047-12.047-30.118-18.071-42.165-18.071s-30.118 6.024-42.165 18.071c-24.094 24.094-24.094 60.235 0 84.329zM512 719.059h120.471v-120.471h120.471v-120.471h-120.471v-120.471h-120.471v120.471h-120.471v120.471h120.471z" />
</font>
</defs>
</svg>
